<svg xmlns="http://www.w3.org/2000/svg" width="960" height="320" viewBox="0 0 960 320" role="img" aria-labelledby="title desc">
  <title id="title">Paint, tile, and curtain material samples</title>
  <desc id="desc">A clean workbench with paint swatches, tile samples, a measuring tape, and fabric.</desc>
  <rect width="960" height="320" fill="#f6f7f2"/>
  <rect x="44" y="212" width="872" height="48" rx="8" fill="#d9c9a5"/>
  <rect x="72" y="68" width="170" height="118" rx="10" fill="#f06f55"/>
  <rect x="96" y="92" width="122" height="12" rx="6" fill="#fff7ed" opacity=".85"/>
  <rect x="96" y="118" width="88" height="12" rx="6" fill="#fff7ed" opacity=".65"/>
  <rect x="276" y="68" width="74" height="74" rx="6" fill="#d9eef2"/>
  <rect x="360" y="68" width="74" height="74" rx="6" fill="#e6e0d2"/>
  <rect x="276" y="152" width="74" height="74" rx="6" fill="#b6d7c9"/>
  <rect x="360" y="152" width="74" height="74" rx="6" fill="#f0d38a"/>
  <path d="M500 76 C590 36 696 48 780 88 L780 224 C690 184 594 176 500 222 Z" fill="#346b73"/>
  <path d="M520 94 C596 64 680 72 756 106" fill="none" stroke="#f6f7f2" stroke-width="10" opacity=".35"/>
  <rect x="118" y="224" width="604" height="28" rx="14" fill="#f8d267"/>
  <g fill="#1f2937" font-family="Arial, sans-serif" font-size="16" font-weight="700">
    <text x="144" y="244">10</text>
    <text x="244" y="244">20</text>
    <text x="344" y="244">30</text>
    <text x="444" y="244">40</text>
    <text x="544" y="244">50</text>
    <text x="644" y="244">60</text>
  </g>
  <circle cx="824" cy="104" r="44" fill="#ffffff"/>
  <circle cx="824" cy="104" r="31" fill="#f06f55"/>
  <rect x="804" y="146" width="42" height="76" rx="12" fill="#ffffff"/>
</svg>
